# xmcd
#
# Track frame offsets:
#	150
#	13097
#	31245
#	43552
#	54370
#	61802
#	73935
#	85882
#	99040
#	110617
#
# Disc length: 1628 seconds
#
# Revision: 1
# Processed by: cddbd v1.5PL3 Copyright (c) Steve Scherf et al.
# Submitted via: audiograbber 1.83.01
#
DISCID=78065a0a
DTITLE=Los Originales De San Juan - El Original
DYEAR=1900
DGENRE=Ethnic
TTITLE0=EL Barco Ligero
TTITLE1=Tus Caderas Te Traicionan
TTITLE2=El Original
TTITLE3=La Pachanga
TTITLE4=No Puedo Olvidarte
TTITLE5=Regalo De Dios
TTITLE6=El Infeliz
TTITLE7=Eres Flor, Eres Hermosa
TTITLE8=Las Consecuencias
TTITLE9=Soy De Chicali
EXTD=
EXTT0=
EXTT1=
EXTT2=
EXTT3=
EXTT4=
EXTT5=
EXTT6=
EXTT7=
EXTT8=
EXTT9=
PLAYORDER=
